<mxfile host="app.diagrams.net" modified="2023-05-07T12:59:13.100Z" agent="Mozilla/5.0 (Macintosh; Intel Mac OS X 10_15_7) AppleWebKit/537.36 (KHTML, like Gecko) Chrome/112.0.0.0 Safari/537.36" etag="I0Vhs32eSb5AxWrEQXUu" version="21.1.8" type="device">
  <diagram id="C5RBs43oDa-KdzZeNtuy" name="Page-1">
    <mxGraphModel dx="954" dy="647" grid="1" gridSize="10" guides="1" tooltips="1" connect="1" arrows="1" fold="1" page="1" pageScale="1" pageWidth="827" pageHeight="1169" math="1" shadow="0">
      <root>
        <mxCell id="WIyWlLk6GJQsqaUBKTNV-0" />
        <mxCell id="WIyWlLk6GJQsqaUBKTNV-1" parent="WIyWlLk6GJQsqaUBKTNV-0" />
        <mxCell id="h3iGEbAcrN5iRnqlv0FF-5" value="" style="edgeStyle=orthogonalEdgeStyle;rounded=0;orthogonalLoop=1;jettySize=auto;html=1;" parent="WIyWlLk6GJQsqaUBKTNV-1" source="h3iGEbAcrN5iRnqlv0FF-2" target="h3iGEbAcrN5iRnqlv0FF-4" edge="1">
          <mxGeometry relative="1" as="geometry" />
        </mxCell>
        <mxCell id="h3iGEbAcrN5iRnqlv0FF-2" value="Mass conservation&lt;br&gt;Navier-Stokes eqs" style="whiteSpace=wrap;html=1;rounded=1;glass=0;strokeWidth=1;shadow=0;" parent="WIyWlLk6GJQsqaUBKTNV-1" vertex="1">
          <mxGeometry x="142.5" y="230" width="120" height="60" as="geometry" />
        </mxCell>
        <mxCell id="h3iGEbAcrN5iRnqlv0FF-8" value="" style="edgeStyle=orthogonalEdgeStyle;rounded=0;orthogonalLoop=1;jettySize=auto;html=1;" parent="WIyWlLk6GJQsqaUBKTNV-1" source="h3iGEbAcrN5iRnqlv0FF-4" target="h3iGEbAcrN5iRnqlv0FF-7" edge="1">
          <mxGeometry relative="1" as="geometry" />
        </mxCell>
        <mxCell id="h3iGEbAcrN5iRnqlv0FF-4" value="Mass conservation&lt;br&gt;Euler eq" style="whiteSpace=wrap;html=1;rounded=1;glass=0;strokeWidth=1;shadow=0;" parent="WIyWlLk6GJQsqaUBKTNV-1" vertex="1">
          <mxGeometry x="342.5" y="230" width="120" height="60" as="geometry" />
        </mxCell>
        <mxCell id="h3iGEbAcrN5iRnqlv0FF-6" value="inviscid" style="text;html=1;align=center;verticalAlign=middle;resizable=0;points=[];autosize=1;strokeColor=none;fillColor=none;" parent="WIyWlLk6GJQsqaUBKTNV-1" vertex="1">
          <mxGeometry x="271.5" y="233" width="60" height="30" as="geometry" />
        </mxCell>
        <mxCell id="h3iGEbAcrN5iRnqlv0FF-7" value="Laplace&#39;s eq&lt;br&gt;Bernoulli&#39;s eq" style="whiteSpace=wrap;html=1;rounded=1;glass=0;strokeWidth=1;shadow=0;" parent="WIyWlLk6GJQsqaUBKTNV-1" vertex="1">
          <mxGeometry x="562.5" y="230" width="120" height="60" as="geometry" />
        </mxCell>
        <mxCell id="h3iGEbAcrN5iRnqlv0FF-9" value="incompressible" style="text;html=1;align=center;verticalAlign=middle;resizable=0;points=[];autosize=1;strokeColor=none;fillColor=none;" parent="WIyWlLk6GJQsqaUBKTNV-1" vertex="1">
          <mxGeometry x="462.5" y="233" width="100" height="30" as="geometry" />
        </mxCell>
        <mxCell id="h3iGEbAcrN5iRnqlv0FF-10" value="&lt;div style=&quot;text-align: start;&quot;&gt;&lt;font style=&quot;font-size: 12px;&quot; face=&quot;sans-serif&quot; color=&quot;#202122&quot;&gt;&lt;span style=&quot;background-color: rgb(255, 255, 255);&quot;&gt;irrotational&lt;/span&gt;&lt;/font&gt;&lt;/div&gt;" style="text;html=1;align=center;verticalAlign=middle;resizable=0;points=[];autosize=1;strokeColor=none;fillColor=none;" parent="WIyWlLk6GJQsqaUBKTNV-1" vertex="1">
          <mxGeometry x="471.5" y="255" width="80" height="30" as="geometry" />
        </mxCell>
        <mxCell id="9WPusUnOcBkyx_wIXrei-0" value="Potential flow theory" style="text;html=1;align=center;verticalAlign=middle;resizable=0;points=[];autosize=1;strokeColor=none;fillColor=none;" parent="WIyWlLk6GJQsqaUBKTNV-1" vertex="1">
          <mxGeometry x="557.5" y="200" width="130" height="30" as="geometry" />
        </mxCell>
        <mxCell id="b8Hv4RSbSWvBp6GGg8zf-2" value="" style="edgeStyle=orthogonalEdgeStyle;rounded=0;orthogonalLoop=1;jettySize=auto;html=1;" parent="WIyWlLk6GJQsqaUBKTNV-1" source="b8Hv4RSbSWvBp6GGg8zf-3" target="b8Hv4RSbSWvBp6GGg8zf-5" edge="1">
          <mxGeometry relative="1" as="geometry" />
        </mxCell>
        <mxCell id="b8Hv4RSbSWvBp6GGg8zf-3" value="$$\frac{D\rho}{Dt}+\rho\nabla.\mathbf{V}&lt;br&gt;&amp;nbsp;=0$$&lt;br&gt;$$\frac{\rho D\mathbf{V}&lt;br&gt;}{Dt}+\mathbf{V}&lt;br&gt;\nabla.\mathbf{V}&lt;br style=&quot;border-color: var(--border-color);&quot;&gt;&amp;nbsp;=\mathbf{f}&lt;br&gt;-\nabla p+\nu \nabla^2\mathbf{V}&lt;br&gt;$$" style="whiteSpace=wrap;html=1;rounded=1;glass=0;strokeWidth=1;shadow=0;" parent="WIyWlLk6GJQsqaUBKTNV-1" vertex="1">
          <mxGeometry x="10" y="356.25" width="240" height="117.5" as="geometry" />
        </mxCell>
        <mxCell id="b8Hv4RSbSWvBp6GGg8zf-4" value="" style="edgeStyle=orthogonalEdgeStyle;rounded=0;orthogonalLoop=1;jettySize=auto;html=1;" parent="WIyWlLk6GJQsqaUBKTNV-1" source="b8Hv4RSbSWvBp6GGg8zf-5" target="b8Hv4RSbSWvBp6GGg8zf-7" edge="1">
          <mxGeometry relative="1" as="geometry" />
        </mxCell>
        <mxCell id="b8Hv4RSbSWvBp6GGg8zf-5" value="$$\frac{D\rho}{Dt}+\rho\nabla.\mathbf{V}&lt;br style=&quot;border-color: var(--border-color);&quot;&gt;&amp;nbsp;=0$$&lt;br&gt;$$\quad\frac{D\mathbf{V}}{Dt} =\frac{\partial \mathbf{V}}{\partial t}+\mathbf{V} \cdot \nabla \mathbf{V}=\mathbf{f}&lt;br&gt;-\frac{\nabla p}{\rho}$$" style="whiteSpace=wrap;html=1;rounded=1;glass=0;strokeWidth=1;shadow=0;" parent="WIyWlLk6GJQsqaUBKTNV-1" vertex="1">
          <mxGeometry x="299" y="355" width="230" height="120" as="geometry" />
        </mxCell>
        <mxCell id="b8Hv4RSbSWvBp6GGg8zf-6" value="$$\nu=0$$" style="text;html=1;align=center;verticalAlign=middle;resizable=0;points=[];autosize=1;strokeColor=none;fillColor=none;" parent="WIyWlLk6GJQsqaUBKTNV-1" vertex="1">
          <mxGeometry x="234" y="388" width="80" height="30" as="geometry" />
        </mxCell>
        <mxCell id="b8Hv4RSbSWvBp6GGg8zf-7" value="$$\nabla^2 = 0&lt;br&gt;$$" style="whiteSpace=wrap;html=1;rounded=1;glass=0;strokeWidth=1;shadow=0;" parent="WIyWlLk6GJQsqaUBKTNV-1" vertex="1">
          <mxGeometry x="610" y="385" width="120" height="60" as="geometry" />
        </mxCell>
        <mxCell id="b8Hv4RSbSWvBp6GGg8zf-8" value="ρ=const." style="text;html=1;align=center;verticalAlign=middle;resizable=0;points=[];autosize=1;strokeColor=none;fillColor=none;" parent="WIyWlLk6GJQsqaUBKTNV-1" vertex="1">
          <mxGeometry x="535" y="388" width="70" height="30" as="geometry" />
        </mxCell>
        <mxCell id="b8Hv4RSbSWvBp6GGg8zf-9" value="&lt;span style=&quot;color: rgb(32, 33, 34); font-family: sans-serif; font-size: 14px; text-align: start; background-color: rgb(255, 255, 255);&quot;&gt;∇x&lt;/span&gt;&lt;b style=&quot;color: rgb(32, 33, 34); font-family: sans-serif; font-size: 14px; text-align: start; background-color: rgb(255, 255, 255);&quot;&gt;V &lt;/b&gt;&lt;span style=&quot;color: rgb(32, 33, 34); font-family: sans-serif; font-size: 14px; text-align: start; background-color: rgb(255, 255, 255);&quot;&gt;= 0&lt;/span&gt;" style="text;html=1;align=center;verticalAlign=middle;resizable=0;points=[];autosize=1;strokeColor=none;fillColor=none;" parent="WIyWlLk6GJQsqaUBKTNV-1" vertex="1">
          <mxGeometry x="535" y="411" width="70" height="30" as="geometry" />
        </mxCell>
      </root>
    </mxGraphModel>
  </diagram>
</mxfile>
